<svg width="55" height="55" viewBox="0 0 55 55" fill="none" xmlns="http://www.w3.org/2000/svg">
<path d="M29.8467 0C28.1478 6.95286 26.6078 13.8925 25.6789 20.7938C26.1433 20.6858 26.62 20.6378 27.1211 20.6378C27.9522 20.6378 28.7589 20.7818 29.5167 21.0578C30.0422 14.2046 30.8489 7.28052 32.6333 0.264048L29.8467 0ZM22.55 1.03579L18.2233 2.03557C18.6511 4.00153 19.1644 5.96268 19.7511 7.92144L24.4567 14.2886C24.6522 13.1604 24.8722 12.0442 25.0922 10.916C24.1144 7.66699 23.21 4.3796 22.55 1.03579ZM38.5 2.14959C36.19 5.11893 34.3689 8.2239 32.7311 11.3961C32.4867 13.1964 32.2789 14.9847 32.0956 16.7971C32.9144 16.0889 33.7211 15.3808 34.5156 14.6727C36.1044 10.832 38.0478 7.00087 41.03 3.25619L38.5 2.14959ZM14.19 4.11555L11.9044 5.91828L22.8067 22.162C22.9656 22.03 23.1244 21.91 23.2956 21.778C23.4911 20.2897 23.6989 18.8014 23.9311 17.3131L14.19 4.11555ZM45.9433 6.83164C41.58 11.3721 36.7767 15.6809 31.8144 19.9176L31.6311 22.3181C32.1567 22.7741 32.6211 23.3142 32.9878 23.9143C38.3044 18.9935 43.4989 14.1086 47.8133 9.04364L45.9433 6.83164ZM8.03489 10.844L5.47678 14.4206C7.96522 16.485 10.8656 18.3093 13.9578 20.0376C15.9011 20.6257 17.8444 21.1658 19.8 21.6699L16.5978 16.8811C13.5178 15.0927 10.5722 13.1724 8.03489 10.844ZM50.6856 12.5603L41.7022 18.7294C41.0178 19.4135 40.3089 20.0736 39.6122 20.7578C41.1644 20.7218 42.7167 20.6498 44.2811 20.5297C46.8111 18.6694 49.4756 16.8571 52.4456 15.1408L50.6856 12.5603ZM2.882 18.4414L2.167 21.2139C7.64011 23.6503 13.3711 25.5827 19.1767 27.395C19.5556 27.1309 19.9344 26.8789 20.3133 26.6268C20.4111 25.7627 20.6678 24.9705 21.0589 24.2264C14.8622 22.6781 8.76333 20.8658 2.882 18.4414ZM54.3767 21.1658C48.5833 22.5341 42.8756 22.9542 37.2778 22.9422C36.1411 24.0104 35.0044 25.0666 33.8556 26.1348L33.8922 26.3148C34.0389 26.4108 34.1733 26.4948 34.32 26.5788C41.3967 26.4708 48.2533 25.6547 55 24.4784L54.3767 21.1658ZM27.1211 22.8101C24.5422 22.8101 22.4767 24.8505 22.4767 27.395C22.4767 29.9394 24.5422 31.9678 27.1211 31.9678C29.7 31.9678 31.7533 29.9394 31.7533 27.395C31.7533 24.8505 29.7 22.8101 27.1211 22.8101ZM0.510889 24.0704L0 27.2269L7.28078 28.2111C8.87333 27.9471 10.45 27.671 12.0022 27.371C9.41111 26.4828 6.83956 25.5466 4.30589 24.5025L0.510889 24.0704ZM44.9289 28.1151C42.6311 28.3552 40.3211 28.5352 37.9989 28.6552C40.3333 29.8674 42.7778 30.9956 45.2956 32.0878L53.5822 33.8642L53.9611 29.6874L44.9289 28.1151ZM16.2311 28.7632C11.3056 29.7474 6.28956 30.6956 0.751667 31.3197L1.11833 35.4364L9.33778 33.6601C11.88 32.1358 14.3856 30.5636 16.83 28.9553C16.6344 28.8953 16.4267 28.8232 16.2311 28.7632ZM33.8311 28.8112C33.5133 30.1795 32.7922 31.4037 31.79 32.3279C38.28 35.8565 46.0411 38.317 53.6678 40.9935L54.7189 38.257C47.4956 35.4244 40.2356 32.5919 33.8311 28.8112ZM20.4967 29.1233C14.6667 33.048 8.64111 36.7927 2.19389 40.1413L3.81089 42.5297C9.74111 39.7932 15.3633 36.7927 20.7289 33.5521L21.9878 31.8598C21.2911 31.0796 20.7656 30.1555 20.4967 29.1233ZM29.3822 33.7561C28.6733 34.0202 27.9033 34.1522 27.1211 34.1522C26.5589 34.1522 26.0211 34.0802 25.52 33.9602L28.1967 55L31.0689 54.5199L29.3822 33.7561ZM23.2589 33.8282L10.67 50.9193L13.09 52.5396L23.9311 39.1211L23.2589 33.8282ZM31.6922 34.7643L31.9122 37.4888C34.8333 42.6137 37.8767 47.6907 41.3233 52.6116L44.9044 50.7032C41.1889 45.9984 38.0111 41.1975 35.0044 36.3606C33.88 35.8565 32.7678 35.3284 31.6922 34.7643ZM38.5733 37.8849C39.0133 38.593 39.4778 39.2891 39.93 39.9973C42.9489 42.7818 45.8822 45.7223 48.51 49.1309L51.5411 46.4064C49.72 44.3181 47.7767 42.4097 45.76 40.5614C43.3522 39.7212 40.9322 38.8331 38.5733 37.8849ZM17.4533 38.0169C14.5322 39.6612 11.5378 41.2335 8.45778 42.7458L5.20667 45.6863L8.25 48.4348L13.8111 42.9378L17.4533 38.0169ZM24.3222 42.1697L21.01 46.2624L19.7022 53.5357L22.9167 54.4599L24.64 44.6421L24.3222 42.1697ZM32.3278 42.6378L32.4133 43.5979L36.1044 54.2919L37.8889 53.5717L36.7767 49.8391C35.2244 47.4626 33.7578 45.0502 32.3278 42.6378Z" fill="#BABABA"/>
</svg>
